<svg id="Layer_1" data-name="GitHub" xmlns="http://www.w3.org/2000/svg" viewBox="0 0 32.58 31.77"><title>GitHub</title><path d="M640,496.3A16.29,16.29,0,0,0,634.85,528c.82.15,1.11-.35,1.11-.78s0-1.41,0-2.77c-4.53,1-5.49-2.18-5.49-2.18a4.3,4.3,0,0,0-1.81-2.39c-1.47-1,.12-1,.12-1a3.43,3.43,0,0,1,2.49,1.68A3.46,3.46,0,0,0,636,522a3.43,3.43,0,0,1,1-2.17c-3.62-.41-7.42-1.81-7.42-8a6.32,6.32,0,0,1,1.67-4.38,5.93,5.93,0,0,1,.16-4.31s1.37-.43,4.48,1.67a15.68,15.68,0,0,1,8.16,0c3.11-2.1,4.47-1.67,4.47-1.67a5.9,5.9,0,0,1,.17,4.31,6.32,6.32,0,0,1,1.67,4.38c0,6.25-3.81,7.63-7.44,8a3.89,3.89,0,0,1,1.11,3c0,2.18,0,3.94,0,4.47s.29.94,1.12.78A16.29,16.29,0,0,0,640,496.3Z" transform="translate(-623.71 -496.3)" style="fill:#181616;fill-rule:evenodd"/></svg>
