<?xml version="1.0" standalone="no"?>
<!DOCTYPE svg PUBLIC "-//W3C//DTD SVG 20010904//EN"
 "http://www.w3.org/TR/2001/REC-SVG-20010904/DTD/svg10.dtd">
<svg version="1.0" xmlns="http://www.w3.org/2000/svg"
 width="260.000000pt" height="260.000000pt" viewBox="0 0 260.000000 260.000000"
 preserveAspectRatio="xMidYMid meet">
<metadata>
Created by potrace 1.11, written by Peter Selinger 2001-2013
</metadata>
<g transform="translate(0.000000,260.000000) scale(0.100000,-0.100000)"
fill="#000000" stroke="none">
<path d="M655 2210 c-46 -10 -73 -28 -90 -60 -14 -26 -15 -131 -14 -853 1
-912 0 -857 11 -851 8 5 12 -12 8 -31 -1 -5 2 -7 5 -3 11 11 47 -11 39 -24 -5
-7 -2 -8 6 -3 7 4 16 2 21 -6 7 -11 9 -11 9 -1 0 8 9 12 23 11 12 -2 28 0 35
5 7 4 20 2 30 -6 15 -11 16 -11 4 3 -13 18 -2 34 28 41 8 2 23 12 33 23 10 11
15 13 11 5 -4 -8 3 -5 16 8 12 13 29 21 37 18 8 -3 11 -1 8 4 -3 6 2 13 12 17
10 4 25 15 34 25 9 10 20 18 24 18 4 0 20 9 36 21 16 11 36 18 44 15 8 -3 17
0 21 6 4 7 3 8 -4 4 -16 -9 -15 7 0 22 14 14 42 16 33 3 -3 -5 -1 -12 4 -16 6
-3 8 6 5 21 -4 24 -3 26 11 14 13 -11 15 -10 10 3 -4 8 -1 18 6 23 8 4 10 3 5
-4 -4 -7 -2 -12 3 -12 6 0 11 7 11 15 0 8 4 15 9 15 6 0 22 12 38 26 25 23 28
24 34 8 5 -15 7 -14 12 8 4 14 14 28 22 32 11 4 14 2 9 -7 -3 -6 5 1 19 17 24
29 24 29 35 9 6 -11 9 -23 7 -27 -3 -3 -2 -4 2 -1 11 8 11 45 0 38 -5 -3 -8 0
-6 6 3 7 8 11 11 9 4 -2 14 6 23 17 9 11 14 14 10 8 -3 -7 -1 -13 4 -13 6 0
11 7 11 15 0 8 7 15 15 15 8 0 15 4 15 9 0 5 12 17 28 26 15 10 21 12 15 4 -7
-7 -13 -18 -13 -24 0 -5 8 2 18 16 9 14 23 24 30 22 8 -3 10 1 5 14 -6 16 -5
16 10 4 15 -12 17 -12 11 4 -5 13 -4 16 4 11 7 -4 12 -3 12 3 0 5 9 8 20 6 12
-2 18 0 15 6 -6 9 32 48 47 49 4 0 33 18 64 40 32 22 61 40 67 40 5 0 18 10
29 23 11 12 17 15 13 7 -4 -8 0 -7 9 4 21 25 67 48 84 41 13 -5 13 -3 1 12 -8
9 -9 14 -3 10 7 -4 15 0 18 9 3 9 13 14 21 10 8 -3 17 0 21 6 5 7 2 8 -7 3 -8
-4 -4 2 8 14 29 27 37 27 22 -1 -12 -23 -12 -23 8 -3 11 11 17 21 14 22 -3 2
-5 31 -4 65 1 72 0 74 -120 154 -42 28 -74 54 -72 58 3 3 2 4 -1 1 -8 -6 -64
27 -64 37 0 4 -7 8 -16 8 -9 0 -12 5 -8 12 4 6 3 8 -4 4 -6 -3 -17 1 -25 9 -9
8 -18 15 -22 15 -8 0 -69 43 -73 53 -2 4 -10 7 -18 7 -8 0 -14 3 -14 8 0 4
-13 13 -28 20 -16 6 -38 21 -50 32 -12 11 -26 20 -32 20 -5 0 -10 3 -10 8 0 4
-13 13 -30 20 -16 7 -43 26 -60 42 -17 16 -33 29 -36 28 -10 -2 -83 47 -84 55
0 4 -7 7 -15 7 -8 0 -15 3 -15 8 0 4 -13 13 -30 20 -16 7 -43 25 -59 40 -16
15 -35 28 -43 30 -7 2 -18 10 -24 17 -6 8 -14 12 -17 8 -4 -3 -7 -1 -7 5 0 7
-6 12 -13 12 -7 0 -22 8 -33 18 -10 10 -27 21 -36 25 -10 3 -18 11 -18 17 0 6
-4 8 -10 5 -5 -3 -10 -1 -10 4 0 6 -5 11 -11 11 -9 0 -97 55 -109 69 -17 20
-69 36 -95 31z"/>
<path d="M1890 1159 c0 -5 5 -7 10 -4 6 3 10 8 10 11 0 2 -4 4 -10 4 -5 0 -10
-5 -10 -11z"/>
<path d="M1695 1041 c-3 -5 -2 -12 3 -15 5 -3 9 1 9 9 0 17 -3 19 -12 6z"/>
<path d="M1651 1006 c-17 -18 -19 -26 -10 -31 7 -5 10 -4 6 2 -8 13 27 46 38
36 4 -5 5 -2 1 5 -9 16 -9 16 -35 -12z"/>
<path d="M1590 970 c-9 -6 -10 -10 -3 -10 6 0 15 5 18 10 8 12 4 12 -15 0z"/>
<path d="M1570 939 c0 -5 5 -7 10 -4 6 3 10 8 10 11 0 2 -4 4 -10 4 -5 0 -10
-5 -10 -11z"/>
<path d="M1460 860 c-9 -6 -10 -10 -3 -10 6 0 15 5 18 10 8 12 4 12 -15 0z"/>
<path d="M1275 740 c-3 -5 -1 -10 4 -10 6 0 11 5 11 10 0 6 -2 10 -4 10 -3 0
-8 -4 -11 -10z"/>
<path d="M1240 720 c-9 -6 -10 -10 -3 -10 6 0 15 5 18 10 8 12 4 12 -15 0z"/>
<path d="M948 533 c7 -3 16 -2 19 1 4 3 -2 6 -13 5 -11 0 -14 -3 -6 -6z"/>
<path d="M825 440 c-3 -6 1 -7 9 -4 18 7 21 14 7 14 -6 0 -13 -4 -16 -10z"/>
<path d="M770 420 c0 -5 5 -10 11 -10 5 0 7 5 4 10 -3 6 -8 10 -11 10 -2 0 -4
-4 -4 -10z"/>
</g>
</svg>
